<svg width="500" height="132" viewBox="0 0 500 132" fill="none" xmlns="http://www.w3.org/2000/svg">
<path fill-rule="evenodd" clip-rule="evenodd" d="M359.329 91.3755C356.166 87.6997 351.234 84.9547 343.677 84.1663C342.231 84.0144 340.695 83.9384 339.059 83.9384H320.48L351.711 53.3L332.432 53.2715L306.962 77.66C301.284 83.2292 298.095 90.7803 298.095 98.6576V107.69C298.095 113.215 299.254 119.282 303.198 123.888C306.365 127.567 311.303 130.309 318.85 131.094H340.317C349.119 131.094 355.685 128.416 359.719 123.344C362.821 119.456 364.432 114.149 364.432 107.57C364.432 102.045 363.276 95.9822 359.329 91.3755ZM348.842 108.881C348.842 113.826 346.043 116.435 340.727 116.435L320.473 116.502C316.761 116.514 313.705 113.592 313.689 109.954V104.379C313.689 99.4301 316.49 96.8213 321.8 96.8213L342.057 96.7548C345.766 96.7421 348.826 99.6644 348.842 103.305V108.881Z" fill="#151515"/>
<path d="M289.306 84.7233C288.619 87.5031 287.454 90.1911 285.601 92.5277C287.515 94.9403 288.696 97.7296 289.374 100.614C289.949 103.027 290.165 105.509 290.165 107.88C290.165 122.764 281.782 130.961 266.567 130.961H230.91L239.606 114.548H266.996C272.032 114.548 274.578 112.151 274.578 107.434C274.578 104.857 273.936 101.573 268.988 100.611H246.571L255.102 84.2357L269.963 84.2009C274.023 83.0072 274.578 80.0058 274.578 77.609C274.578 72.8915 272.032 69.7096 266.996 69.7096H242.737L233.286 53.5118L266.567 54.0849C281.782 54.0849 290.165 62.2819 290.165 77.1658C290.165 79.6385 289.933 82.222 289.306 84.7233Z" fill="#151515"/>
<path fill-rule="evenodd" clip-rule="evenodd" d="M436.661 75.2118C436.686 75.6582 436.696 76.0983 436.696 76.5511V106.667H436.686C436.696 106.949 436.696 107.224 436.696 107.493C436.696 115.681 434.182 121.855 429.411 125.756C425.435 129.048 419.889 130.755 412.927 130.755H396.127C395.911 130.755 395.696 130.752 395.48 130.748L395.478 130.748C395.12 130.745 394.768 130.733 394.419 130.72C394.344 130.716 394.269 130.712 394.196 130.708L394.058 130.701C393.946 130.697 393.834 130.69 393.722 130.683C393.666 130.679 393.61 130.676 393.554 130.672C393.225 130.65 392.902 130.625 392.583 130.596C392.57 130.593 392.557 130.593 392.544 130.59C392.386 130.574 392.231 130.558 392.076 130.543C388.919 130.207 386.114 129.457 383.684 128.307C383.522 128.231 383.361 128.152 383.203 128.073C382.812 127.877 382.435 127.671 382.067 127.453C381.915 127.364 381.766 127.275 381.618 127.183C381.576 127.155 381.534 127.13 381.495 127.104C381.36 127.019 381.227 126.93 381.095 126.841C381.035 126.801 380.974 126.76 380.914 126.718C380.842 126.669 380.771 126.619 380.701 126.569C380.627 126.519 380.556 126.465 380.482 126.411C380.451 126.388 380.419 126.365 380.388 126.342C380.325 126.295 380.261 126.248 380.201 126.202C380.011 126.056 379.823 125.907 379.639 125.756C374.866 121.855 372.351 115.681 372.351 107.493C372.351 107.139 372.36 106.784 372.369 106.415L372.371 106.366V75.6392C372.371 75.4936 372.377 75.3575 372.387 75.2118C372.451 73.2552 372.667 71.422 373.039 69.7123C374.097 64.751 376.405 60.8567 379.865 58.1022C383.813 54.9393 389.29 53.2992 396.127 53.2992H412.927C419.767 53.2992 425.228 54.9393 429.192 58.1117C433.836 61.8034 436.409 67.5783 436.661 75.2118ZM420.964 106.284H420.99V77.0038C420.99 76.6112 420.974 76.2471 420.938 75.8862C420.561 71.8747 418.011 69.8294 413.35 69.8294H395.697C391.049 69.8294 388.5 71.8747 388.115 75.8862C388.083 76.2471 388.064 76.6112 388.064 77.0038V106.284H388.09C388.073 106.55 388.064 106.803 388.064 107.05C388.064 109.953 389.022 111.983 390.924 113.12C391.001 113.17 391.078 113.215 391.156 113.253C391.311 113.341 391.476 113.42 391.643 113.493C391.701 113.519 391.76 113.544 391.821 113.566C391.953 113.62 392.089 113.67 392.228 113.718C392.264 113.731 392.302 113.743 392.34 113.755C392.375 113.766 392.411 113.777 392.447 113.788L392.448 113.788C392.541 113.816 392.635 113.845 392.731 113.87C392.847 113.898 392.963 113.927 393.086 113.955C393.1 113.959 393.115 113.962 393.129 113.965C393.14 113.968 393.152 113.97 393.164 113.971C393.26 113.993 393.361 114.012 393.464 114.028C393.728 114.079 394.003 114.117 394.29 114.145C394.345 114.152 394.4 114.158 394.458 114.161C394.561 114.171 394.668 114.18 394.777 114.187C394.913 114.196 395.052 114.202 395.194 114.206C395.213 114.209 395.233 114.209 395.252 114.209C395.354 114.211 395.458 114.213 395.563 114.214C395.607 114.215 395.652 114.215 395.697 114.215H413.35C418.427 114.215 420.99 111.802 420.99 107.05C420.99 106.803 420.983 106.55 420.964 106.284Z" fill="#151515"/>
<path fill-rule="evenodd" clip-rule="evenodd" d="M62.8278 85.4595L62.8311 114.778L62.831 114.782C62.831 123.793 70.3839 131.097 79.6991 131.097H128.26C144.028 131.097 152.717 122.745 152.717 107.57C152.717 96.7924 148.256 83.938 126.992 83.938H110.221C102.187 83.938 101.26 79.8823 101.26 76.827C101.26 72.1095 103.843 69.7127 108.949 69.7127H160.712V131.094H177.839V113.332H194.613C217.985 113.332 230.225 99.8794 230.225 83.3143C230.225 66.7429 217.985 53.2996 194.736 53.2996H109.381C103.978 53.2996 99.4238 54.3033 95.7894 56.2505C89.0369 59.8598 85.4477 66.7081 85.4477 76.3805C85.4477 83.7196 87.549 92.0338 95.7894 96.4441C99.427 98.3913 104.265 99.5786 110.65 99.5786H127.298C135.91 99.5786 136.911 103.884 136.911 107.13C136.911 112.075 134.07 114.684 128.683 114.684L79.9542 114.757V53.124H62.9117L62.8278 53.2728L40.0207 92.0196L17.1296 53.124H0V130.918H17.1296V85.317L40.0207 124.209L62.8278 85.4595ZM195.465 98.9232H177.839V69.7127H195.585C205.62 69.7127 212.24 75.6682 212.24 84.318C212.24 92.9583 205.62 98.9232 195.465 98.9232Z" fill="#151515"/>
<path d="M391.037 39.5373C391.474 35.7546 392.72 32.2114 394.601 29.077C395.331 27.861 396.157 26.7066 397.068 25.6236C402.074 19.6725 409.665 15.8772 418.162 15.8772C432.185 15.8772 443.738 26.2134 445.284 39.5173C466.247 40.1204 483.051 56.9219 483.051 77.5602C483.051 97.3096 467.664 113.546 447.969 115.436C446.945 120.834 444.838 125.886 441.379 130.171C442.286 130.215 443.199 130.237 444.118 130.237C473.878 130.237 498.004 106.653 498.004 77.5602C498.004 52.8276 480.571 32.0792 457.058 26.4128C450.625 11.6242 435.639 1.25977 418.162 1.25977C403.071 1.25977 389.837 8.98788 382.363 20.6193C381.477 20.5459 380.581 20.5084 379.676 20.5084C370.341 20.5084 361.954 24.4767 356.184 30.782L366.788 41.1488C369.199 38.2308 372.626 36.1483 376.544 35.4151C377.558 35.2252 378.605 35.1258 379.676 35.1258C382.29 35.1258 384.762 35.7177 386.96 36.7718C388.461 37.4918 389.834 38.4274 391.037 39.5373Z" fill="#151515"/>
</svg>
